<?xml version="1.0" encoding="UTF-8"?>
<!DOCTYPE svg PUBLIC "-//W3C//DTD SVG 1.1//EN" "http://www.w3.org/Graphics/SVG/1.1/DTD/svg11.dtd">
<svg xmlns="http://www.w3.org/2000/svg" version="1.1" preserveAspectRatio="none" width="1090px" height="495px">
    <g>
        <path style="opacity:1" fill="#fefefe"
            d="M -0.5,-0.5 C 362.833,-0.5 726.167,-0.5 1089.5,-0.5C 1089.5,164.5 1089.5,329.5 1089.5,494.5C 726.167,494.5 362.833,494.5 -0.5,494.5C -0.5,329.5 -0.5,164.5 -0.5,-0.5 Z" />
    </g>
    <g>
        <path style="opacity:1" fill="#5fa6c1"
            d="M 128.5,136.5 C 188.833,136.5 249.167,136.5 309.5,136.5C 309.5,196.833 309.5,257.167 309.5,317.5C 249.167,317.5 188.833,317.5 128.5,317.5C 128.5,257.167 128.5,196.833 128.5,136.5 Z" />
    </g>
    <g>
        <path style="opacity:1" fill="#d1e5ec"
            d="M 161.5,259.5 C 160.501,221.337 160.168,183.004 160.5,144.5C 152.5,144.5 144.5,144.5 136.5,144.5C 136.5,199.833 136.5,255.167 136.5,310.5C 135.501,255.002 135.168,199.336 135.5,143.5C 144.167,143.5 152.833,143.5 161.5,143.5C 161.5,182.167 161.5,220.833 161.5,259.5 Z" />
    </g>
    <g>
        <path style="opacity:1" fill="#fefefe"
            d="M 161.5,259.5 C 164.833,259.5 168.167,259.5 171.5,259.5C 171.5,276.5 171.5,293.5 171.5,310.5C 159.833,310.5 148.167,310.5 136.5,310.5C 136.5,255.167 136.5,199.833 136.5,144.5C 144.5,144.5 152.5,144.5 160.5,144.5C 160.168,183.004 160.501,221.337 161.5,259.5 Z" />
    </g>
    <g>
        <path style="opacity:1" fill="#fefefe"
            d="M 190.5,143.5 C 195.167,143.5 199.833,143.5 204.5,143.5C 204.5,182.167 204.5,220.833 204.5,259.5C 208.167,259.5 211.833,259.5 215.5,259.5C 215.5,276.5 215.5,293.5 215.5,310.5C 203.5,310.5 191.5,310.5 179.5,310.5C 179.5,293.5 179.5,276.5 179.5,259.5C 183.167,259.5 186.833,259.5 190.5,259.5C 190.5,220.833 190.5,182.167 190.5,143.5 Z" />
    </g>
    <g>
        <path style="opacity:1" fill="#fdfefe"
            d="M 233.5,144.5 C 238.167,144.5 242.833,144.5 247.5,144.5C 247.168,183.004 247.501,221.337 248.5,259.5C 251.833,259.5 255.167,259.5 258.5,259.5C 258.5,276.5 258.5,293.5 258.5,310.5C 246.5,310.5 234.5,310.5 222.5,310.5C 222.5,293.5 222.5,276.5 222.5,259.5C 226.167,259.5 229.833,259.5 233.5,259.5C 233.5,221.167 233.5,182.833 233.5,144.5 Z" />
    </g>
    <g>
        <path style="opacity:1" fill="#c4dee8"
            d="M 233.5,144.5 C 238.305,143.513 243.305,143.179 248.5,143.5C 248.5,182.167 248.5,220.833 248.5,259.5C 247.501,221.337 247.168,183.004 247.5,144.5C 242.833,144.5 238.167,144.5 233.5,144.5 Z" />
    </g>
    <g>
        <path style="opacity:1" fill="#fefefe"
            d="M 277.5,143.5 C 285.833,143.5 294.167,143.5 302.5,143.5C 302.5,199.167 302.5,254.833 302.5,310.5C 290.5,310.5 278.5,310.5 266.5,310.5C 266.5,293.5 266.5,276.5 266.5,259.5C 270.167,259.5 273.833,259.5 277.5,259.5C 277.5,220.833 277.5,182.167 277.5,143.5 Z" />
    </g>
    <g>
        <path style="opacity:1" fill="#355982"
            d="M 517.5,226.5 C 514.833,226.5 512.167,226.5 509.5,226.5C 509.815,222.629 509.482,218.962 508.5,215.5C 506.46,212.866 504.293,212.866 502,215.5C 501.333,219.167 501.333,222.833 502,226.5C 507.385,232.884 512.385,239.55 517,246.5C 517.877,253.249 517.544,259.916 516,266.5C 512.268,272.046 507.101,273.879 500.5,272C 496.51,270.01 494.01,266.843 493,262.5C 492.501,258.514 492.334,254.514 492.5,250.5C 495.5,250.5 498.5,250.5 501.5,250.5C 501.335,254.182 501.501,257.848 502,261.5C 503.67,263.698 505.67,264.032 508,262.5C 508.667,258.167 508.667,253.833 508,249.5C 503,242.833 498,236.167 493,229.5C 492.333,223.833 492.333,218.167 493,212.5C 497.117,204.625 503.284,202.458 511.5,206C 513.917,207.663 515.75,209.829 517,212.5C 517.499,217.155 517.666,221.821 517.5,226.5 Z" />
    </g>
    <g>
        <path style="opacity:1" fill="#365982"
            d="M 913.5,262.5 C 913.5,258.5 913.5,254.5 913.5,250.5C 916.167,250.5 918.833,250.5 921.5,250.5C 922.324,254.312 922.824,258.312 923,262.5C 925.33,264.032 927.33,263.698 929,261.5C 929.667,257.833 929.667,254.167 929,250.5C 924,243.5 919,236.5 914,229.5C 913.333,223.5 913.333,217.5 914,211.5C 919.166,204.285 925.666,202.785 933.5,207C 935.617,208.731 937.117,210.898 938,213.5C 938.499,218.155 938.666,222.821 938.5,227.5C 935.5,227.5 932.5,227.5 929.5,227.5C 929.666,223.486 929.499,219.486 929,215.5C 927.33,213.302 925.33,212.968 923,214.5C 922.333,218.5 922.333,222.5 923,226.5C 928,233.5 933,240.5 938,247.5C 938.667,253.167 938.667,258.833 938,264.5C 934.024,271.236 928.191,273.736 920.5,272C 917.152,269.499 914.818,266.332 913.5,262.5 Z" />
    </g>
    <g>
        <path style="opacity:1" fill="#7f96b1"
            d="M 388.5,206.5 C 395.648,205.508 402.981,205.175 410.5,205.5C 410.81,208.713 410.477,211.713 409.5,214.5C 409.5,211.833 409.5,209.167 409.5,206.5C 402.5,206.5 395.5,206.5 388.5,206.5 Z" />
    </g>
    <g>
        <path style="opacity:1" fill="#8298b2"
            d="M 559.5,206.5 C 556.302,205.964 553.635,206.631 551.5,208.5C 550.596,207.791 550.263,206.791 550.5,205.5C 553.713,205.19 556.713,205.523 559.5,206.5 Z" />
    </g>
    <g>
        <path style="opacity:1" fill="#8097b1"
            d="M 577.5,206.5 C 574.391,206.264 571.391,206.597 568.5,207.5C 569.514,206.235 571.014,205.569 573,205.5C 574.707,205.508 576.207,205.842 577.5,206.5 Z" />
    </g>
    <g>
        <path style="opacity:1" fill="#889db6"
            d="M 595.5,208.5 C 593.365,206.631 590.698,205.964 587.5,206.5C 587.737,207.791 587.404,208.791 586.5,209.5C 586.5,208.167 586.5,206.833 586.5,205.5C 589.833,205.5 593.167,205.5 596.5,205.5C 596.737,206.791 596.404,207.791 595.5,208.5 Z" />
    </g>
    <g>
        <path style="opacity:1" fill="#4b6b90"
            d="M 605.5,206.5 C 608.287,205.523 611.287,205.19 614.5,205.5C 614.831,227.673 614.497,249.673 613.5,271.5C 613.5,249.833 613.5,228.167 613.5,206.5C 610.833,206.5 608.167,206.5 605.5,206.5 Z" />
    </g>
    <g>
        <path style="opacity:1" fill="#7f96b1"
            d="M 806.5,206.5 C 813.648,205.508 820.981,205.175 828.5,205.5C 828.81,208.713 828.477,211.713 827.5,214.5C 827.5,211.833 827.5,209.167 827.5,206.5C 820.5,206.5 813.5,206.5 806.5,206.5 Z" />
    </g>
    <g>
        <path style="opacity:1" fill="#355982"
            d="M 857.5,246.5 C 857.838,248.854 858.338,251.187 859,253.5C 859.5,246.842 859.666,240.175 859.5,233.5C 859.5,224.167 859.5,214.833 859.5,205.5C 862.5,205.5 865.5,205.5 868.5,205.5C 868.5,227.833 868.5,250.167 868.5,272.5C 863.5,272.5 858.5,272.5 853.5,272.5C 851.849,256.109 849.682,239.775 847,223.5C 846.5,239.83 846.333,256.163 846.5,272.5C 843.5,272.5 840.5,272.5 837.5,272.5C 837.5,250.167 837.5,227.833 837.5,205.5C 842.5,205.5 847.5,205.5 852.5,205.5C 854.057,219.177 855.724,232.844 857.5,246.5 Z" />
    </g>
    <g>
        <path style="opacity:1" fill="#8a9fb7"
            d="M 368.5,206.5 C 363.833,206.5 359.167,206.5 354.5,206.5C 354.5,228.5 354.5,250.5 354.5,272.5C 353.503,250.34 353.169,228.006 353.5,205.5C 358.695,205.179 363.695,205.513 368.5,206.5 Z" />
    </g>
    <g>
        <path style="opacity:1" fill="#325780"
            d="M 368.5,206.5 C 372.372,207.354 374.872,209.688 376,213.5C 376.793,219.885 376.626,226.218 375.5,232.5C 376.531,233.7 377.365,235.034 378,236.5C 378.667,245.833 378.667,255.167 378,264.5C 377.214,267.583 375.381,269.749 372.5,271C 366.577,272.304 360.577,272.804 354.5,272.5C 354.5,250.5 354.5,228.5 354.5,206.5C 359.167,206.5 363.833,206.5 368.5,206.5 Z" />
    </g>
    <g>
        <path style="opacity:1" fill="#325680"
            d="M 388.5,206.5 C 395.5,206.5 402.5,206.5 409.5,206.5C 409.5,209.167 409.5,211.833 409.5,214.5C 405.5,214.5 401.5,214.5 397.5,214.5C 397.5,219.167 397.5,223.833 397.5,228.5C 401.5,228.5 405.5,228.5 409.5,228.5C 409.5,231.167 409.5,233.833 409.5,236.5C 405.167,236.5 400.833,236.5 396.5,236.5C 396.173,245.682 396.507,254.682 397.5,263.5C 401.5,263.5 405.5,263.5 409.5,263.5C 409.5,266.167 409.5,268.833 409.5,271.5C 402.5,271.5 395.5,271.5 388.5,271.5C 388.5,249.833 388.5,228.167 388.5,206.5 Z" />
    </g>
    <g>
        <path style="opacity:1" fill="#375a83"
            d="M 427.5,205.5 C 431.5,205.5 435.5,205.5 439.5,205.5C 443.276,227.822 446.943,250.155 450.5,272.5C 447.552,272.777 444.719,272.444 442,271.5C 441.109,264.485 440.109,257.485 439,250.5C 435.606,249.544 432.106,249.211 428.5,249.5C 427.751,257.159 427.084,264.826 426.5,272.5C 423.5,272.5 420.5,272.5 417.5,272.5C 420.279,250.048 423.612,227.715 427.5,205.5 Z" />
    </g>
    <g>
        <path style="opacity:1" fill="#385b84"
            d="M 451.5,205.5 C 462.167,205.5 472.833,205.5 483.5,205.5C 483.5,208.5 483.5,211.5 483.5,214.5C 479.833,214.5 476.167,214.5 472.5,214.5C 472.5,233.833 472.5,253.167 472.5,272.5C 469.5,272.5 466.5,272.5 463.5,272.5C 463.5,253.167 463.5,233.833 463.5,214.5C 459.5,214.5 455.5,214.5 451.5,214.5C 451.5,211.5 451.5,208.5 451.5,205.5 Z" />
    </g>
    <g>
        <path style="opacity:1" fill="#345882"
            d="M 559.5,206.5 C 561.32,216.406 562.82,226.406 564,236.5C 566.554,227.094 568.054,217.427 568.5,207.5C 571.391,206.597 574.391,206.264 577.5,206.5C 579.089,216.766 580.923,227.099 583,237.5C 583.936,228.12 585.102,218.786 586.5,209.5C 587.404,208.791 587.737,207.791 587.5,206.5C 590.698,205.964 593.365,206.631 595.5,208.5C 592.553,229.797 589.886,251.13 587.5,272.5C 584.5,272.5 581.5,272.5 578.5,272.5C 577.073,263.18 575.74,253.846 574.5,244.5C 574.66,242.801 574.494,241.134 574,239.5C 572.872,241.345 572.372,243.345 572.5,245.5C 571.032,254.442 570.032,263.442 569.5,272.5C 566.223,272.784 563.057,272.451 560,271.5C 557.025,250.506 554.191,229.506 551.5,208.5C 553.635,206.631 556.302,205.964 559.5,206.5 Z" />
    </g>
    <g>
        <path style="opacity:1" fill="#315680"
            d="M 605.5,206.5 C 608.167,206.5 610.833,206.5 613.5,206.5C 613.5,228.167 613.5,249.833 613.5,271.5C 610.833,271.5 608.167,271.5 605.5,271.5C 605.5,249.833 605.5,228.167 605.5,206.5 Z" />
    </g>
    <g>
        <path style="opacity:1" fill="#385b84"
            d="M 623.5,205.5 C 634.167,205.5 644.833,205.5 655.5,205.5C 655.5,208.5 655.5,211.5 655.5,214.5C 651.833,214.5 648.167,214.5 644.5,214.5C 644.5,233.833 644.5,253.167 644.5,272.5C 641.5,272.5 638.5,272.5 635.5,272.5C 635.5,253.167 635.5,233.833 635.5,214.5C 631.5,214.5 627.5,214.5 623.5,214.5C 623.5,211.5 623.5,208.5 623.5,205.5 Z" />
    </g>
    <g>
        <path style="opacity:1" fill="#6984a3"
            d="M 672.5,206.5 C 669.833,206.5 667.167,206.5 664.5,206.5C 664.5,228.167 664.5,249.833 664.5,271.5C 667.167,271.5 669.833,271.5 672.5,271.5C 669.713,272.477 666.713,272.81 663.5,272.5C 663.5,250.167 663.5,227.833 663.5,205.5C 666.713,205.19 669.713,205.523 672.5,206.5 Z" />
    </g>
    <g>
        <path style="opacity:1" fill="#315680"
            d="M 672.5,206.5 C 672.5,213.833 672.5,221.167 672.5,228.5C 675.167,228.5 677.833,228.5 680.5,228.5C 680.5,221.167 680.5,213.833 680.5,206.5C 683.167,206.5 685.833,206.5 688.5,206.5C 688.5,228.167 688.5,249.833 688.5,271.5C 685.833,271.5 683.167,271.5 680.5,271.5C 680.5,260.167 680.5,248.833 680.5,237.5C 677.833,237.5 675.167,237.5 672.5,237.5C 672.5,248.833 672.5,260.167 672.5,271.5C 669.833,271.5 667.167,271.5 664.5,271.5C 664.5,249.833 664.5,228.167 664.5,206.5C 667.167,206.5 669.833,206.5 672.5,206.5 Z" />
    </g>
    <g>
        <path style="opacity:1" fill="#557396"
            d="M 680.5,206.5 C 683.287,205.523 686.287,205.19 689.5,205.5C 689.5,227.833 689.5,250.167 689.5,272.5C 686.287,272.81 683.287,272.477 680.5,271.5C 683.167,271.5 685.833,271.5 688.5,271.5C 688.5,249.833 688.5,228.167 688.5,206.5C 685.833,206.5 683.167,206.5 680.5,206.5 Z" />
    </g>
    <g>
        <path style="opacity:1" fill="#95a9bd"
            d="M 722.5,206.5 C 722.5,228.167 722.5,249.833 722.5,271.5C 725.167,271.5 727.833,271.5 730.5,271.5C 727.713,272.477 724.713,272.81 721.5,272.5C 721.169,250.327 721.503,228.327 722.5,206.5 Z" />
    </g>
    <g>
        <path style="opacity:1" fill="#345881"
            d="M 730.5,271.5 C 727.833,271.5 725.167,271.5 722.5,271.5C 722.5,249.833 722.5,228.167 722.5,206.5C 729.313,205.509 736.313,205.175 743.5,205.5C 743.5,208.5 743.5,211.5 743.5,214.5C 739.167,214.5 734.833,214.5 730.5,214.5C 730.5,219.167 730.5,223.833 730.5,228.5C 734.833,228.5 739.167,228.5 743.5,228.5C 743.5,231.5 743.5,234.5 743.5,237.5C 739.167,237.5 734.833,237.5 730.5,237.5C 730.5,248.833 730.5,260.167 730.5,271.5 Z" />
    </g>
    <g>
        <path style="opacity:1" fill="#375a83"
            d="M 753.5,205.5 C 759.593,205.139 765.593,205.639 771.5,207C 775.635,208.804 777.802,211.971 778,216.5C 778.667,227.833 778.667,239.167 778,250.5C 776.5,252.833 775,255.167 773.5,257.5C 775.165,262.161 776.832,266.828 778.5,271.5C 775.554,272.655 772.554,272.821 769.5,272C 767.903,267.308 765.903,262.808 763.5,258.5C 762.507,263.12 762.173,267.786 762.5,272.5C 759.5,272.5 756.5,272.5 753.5,272.5C 753.5,250.167 753.5,227.833 753.5,205.5 Z" />
    </g>
    <g>
        <path style="opacity:1" fill="#315680"
            d="M 788.5,205.5 C 791.167,205.5 793.833,205.5 796.5,205.5C 796.5,227.5 796.5,249.5 796.5,271.5C 793.833,271.5 791.167,271.5 788.5,271.5C 788.5,249.5 788.5,227.5 788.5,205.5 Z" />
    </g>
    <g>
        <path style="opacity:1" fill="#335781"
            d="M 806.5,206.5 C 813.5,206.5 820.5,206.5 827.5,206.5C 827.5,209.167 827.5,211.833 827.5,214.5C 823.5,214.5 819.5,214.5 815.5,214.5C 815.5,219.167 815.5,223.833 815.5,228.5C 819.5,228.5 823.5,228.5 827.5,228.5C 827.5,231.167 827.5,233.833 827.5,236.5C 823.298,236.183 819.298,236.517 815.5,237.5C 815.5,246.167 815.5,254.833 815.5,263.5C 819.5,263.5 823.5,263.5 827.5,263.5C 827.5,266.167 827.5,268.833 827.5,271.5C 820.5,271.5 813.5,271.5 806.5,271.5C 806.5,249.833 806.5,228.167 806.5,206.5 Z" />
    </g>
    <g>
        <path style="opacity:1" fill="#8399b3"
            d="M 892.5,206.5 C 887.833,206.5 883.167,206.5 878.5,206.5C 878.5,228.5 878.5,250.5 878.5,272.5C 877.503,250.34 877.169,228.006 877.5,205.5C 882.695,205.179 887.695,205.513 892.5,206.5 Z" />
    </g>
    <g>
        <path style="opacity:1" fill="#355982"
            d="M 892.5,206.5 C 897.49,207.747 900.99,210.747 903,215.5C 903.667,230.833 903.667,246.167 903,261.5C 901.594,266.573 898.428,270.073 893.5,272C 888.511,272.499 883.511,272.666 878.5,272.5C 878.5,250.5 878.5,228.5 878.5,206.5C 883.167,206.5 887.833,206.5 892.5,206.5 Z" />
    </g>
    <g>
        <path style="opacity:1" fill="#c3ceda"
            d="M 366.5,215.5 C 365.5,215.5 364.5,215.5 363.5,215.5C 363.5,220.167 363.5,224.833 363.5,229.5C 362.513,224.695 362.179,219.695 362.5,214.5C 364.099,214.232 365.432,214.566 366.5,215.5 Z" />
    </g>
    <g>
        <path style="opacity:1" fill="#eff2f5"
            d="M 366.5,215.5 C 368.439,219.531 368.939,223.864 368,228.5C 366.644,229.38 365.144,229.714 363.5,229.5C 363.5,224.833 363.5,220.167 363.5,215.5C 364.5,215.5 365.5,215.5 366.5,215.5 Z" />
    </g>
    <g>
        <path style="opacity:1" fill="#fafbfc"
            d="M 762.5,214.5 C 764.792,214.244 766.959,214.577 769,215.5C 769.667,226.5 769.667,237.5 769,248.5C 766.959,249.423 764.792,249.756 762.5,249.5C 762.5,237.833 762.5,226.167 762.5,214.5 Z" />
    </g>
    <g>
        <path style="opacity:1" fill="#fbfbfc"
            d="M 886.5,215.5 C 889.365,215.055 891.865,215.722 894,217.5C 894.667,231.833 894.667,246.167 894,260.5C 892.065,262.759 889.565,263.759 886.5,263.5C 886.5,247.5 886.5,231.5 886.5,215.5 Z" />
    </g>
    <g>
        <path style="opacity:1" fill="#e7ebf0"
            d="M 433.5,217.5 C 435.377,224.943 436.71,232.61 437.5,240.5C 435.167,240.5 432.833,240.5 430.5,240.5C 431.22,232.792 432.22,225.125 433.5,217.5 Z" />
    </g>
    <g>
        <path style="opacity:1" fill="#879cb5"
            d="M 508.5,215.5 C 509.482,218.962 509.815,222.629 509.5,226.5C 512.167,226.5 514.833,226.5 517.5,226.5C 514.713,227.477 511.713,227.81 508.5,227.5C 508.5,223.5 508.5,219.5 508.5,215.5 Z" />
    </g>
    <g>
        <path style="opacity:1" fill="#c4cfda"
            d="M 859.5,233.5 C 859.666,240.175 859.5,246.842 859,253.5C 858.338,251.187 857.838,248.854 857.5,246.5C 858.167,242.167 858.833,237.833 859.5,233.5 Z" />
    </g>
    <g>
        <path style="opacity:1" fill="#6c86a5"
            d="M 827.5,228.5 C 828.477,231.287 828.81,234.287 828.5,237.5C 824.167,237.5 819.833,237.5 815.5,237.5C 819.298,236.517 823.298,236.183 827.5,236.5C 827.5,233.833 827.5,231.167 827.5,228.5 Z" />
    </g>
    <g>
        <path style="opacity:1" fill="#7991ad"
            d="M 409.5,228.5 C 410.477,231.287 410.81,234.287 410.5,237.5C 406.167,237.5 401.833,237.5 397.5,237.5C 397.5,246.167 397.5,254.833 397.5,263.5C 396.507,254.682 396.173,245.682 396.5,236.5C 400.833,236.5 405.167,236.5 409.5,236.5C 409.5,233.833 409.5,231.167 409.5,228.5 Z" />
    </g>
    <g>
        <path style="opacity:1" fill="#eaedf2"
            d="M 362.5,238.5 C 365.119,238.232 367.619,238.565 370,239.5C 370.667,246.833 370.667,254.167 370,261.5C 367.865,263.278 365.365,263.945 362.5,263.5C 362.5,255.167 362.5,246.833 362.5,238.5 Z" />
    </g>
    <g>
        <path style="opacity:1" fill="#a5b5c7"
            d="M 574.5,244.5 C 573.833,244.833 573.167,245.167 572.5,245.5C 572.372,243.345 572.872,241.345 574,239.5C 574.494,241.134 574.66,242.801 574.5,244.5 Z" />
    </g>
    <g>
        <path style="opacity:1" fill="#aebdcc"
            d="M 921.5,250.5 C 918.833,250.5 916.167,250.5 913.5,250.5C 913.5,254.5 913.5,258.5 913.5,262.5C 912.515,258.366 912.182,254.032 912.5,249.5C 915.713,249.19 918.713,249.523 921.5,250.5 Z" />
    </g>
    <g>
        <path style="opacity:1" fill="#6a85a4"
            d="M 409.5,263.5 C 410.477,266.287 410.81,269.287 410.5,272.5C 402.981,272.825 395.648,272.492 388.5,271.5C 395.5,271.5 402.5,271.5 409.5,271.5C 409.5,268.833 409.5,266.167 409.5,263.5 Z" />
    </g>
    <g>
        <path style="opacity:1" fill="#6a85a4"
            d="M 827.5,263.5 C 828.477,266.287 828.81,269.287 828.5,272.5C 820.981,272.825 813.648,272.492 806.5,271.5C 813.5,271.5 820.5,271.5 827.5,271.5C 827.5,268.833 827.5,266.167 827.5,263.5 Z" />
    </g>
</svg>